<mxfile host="Electron" agent="Mozilla/5.0 (Macintosh; Intel Mac OS X 10_15_7) AppleWebKit/537.36 (KHTML, like Gecko) draw.io/27.0.9 Chrome/134.0.6998.205 Electron/35.4.0 Safari/537.36" version="27.0.9">
  <diagram name="Page-1" id="oTZmxWjQva9u60Q3kFn0">
    <mxGraphModel dx="1105" dy="819" grid="1" gridSize="10" guides="1" tooltips="1" connect="1" arrows="1" fold="1" page="1" pageScale="1" pageWidth="827" pageHeight="1169" math="0" shadow="0">
      <root>
        <mxCell id="0" />
        <mxCell id="1" parent="0" />
        <mxCell id="xxeOwCgViu-PLUD5N7O--1" value="User" style="rounded=0;whiteSpace=wrap;html=1;" vertex="1" parent="1">
          <mxGeometry x="160" y="200" width="120" height="60" as="geometry" />
        </mxCell>
        <mxCell id="xxeOwCgViu-PLUD5N7O--2" value="Sortify&lt;div&gt;System&lt;/div&gt;" style="ellipse;whiteSpace=wrap;html=1;aspect=fixed;" vertex="1" parent="1">
          <mxGeometry x="320" y="320" width="160" height="160" as="geometry" />
        </mxCell>
        <mxCell id="xxeOwCgViu-PLUD5N7O--7" value="" style="endArrow=classic;html=1;rounded=0;curved=1;entryX=0;entryY=0.5;entryDx=0;entryDy=0;exitX=0.5;exitY=1;exitDx=0;exitDy=0;" edge="1" parent="1" source="xxeOwCgViu-PLUD5N7O--1" target="xxeOwCgViu-PLUD5N7O--2">
          <mxGeometry width="50" height="50" relative="1" as="geometry">
            <mxPoint x="270" y="640" as="sourcePoint" />
            <mxPoint x="320" y="590" as="targetPoint" />
            <Array as="points">
              <mxPoint x="210" y="380" />
            </Array>
          </mxGeometry>
        </mxCell>
        <mxCell id="xxeOwCgViu-PLUD5N7O--8" value="" style="endArrow=classic;html=1;rounded=0;curved=1;entryX=1;entryY=0.5;entryDx=0;entryDy=0;exitX=0;exitY=0;exitDx=0;exitDy=0;" edge="1" parent="1" source="xxeOwCgViu-PLUD5N7O--2" target="xxeOwCgViu-PLUD5N7O--1">
          <mxGeometry width="50" height="50" relative="1" as="geometry">
            <mxPoint x="380" y="150" as="sourcePoint" />
            <mxPoint x="480" y="290" as="targetPoint" />
            <Array as="points">
              <mxPoint x="370" y="270" />
            </Array>
          </mxGeometry>
        </mxCell>
        <mxCell id="xxeOwCgViu-PLUD5N7O--9" value="Select folder,&amp;nbsp;&lt;div&gt;criteria, sort&lt;/div&gt;" style="text;html=1;align=center;verticalAlign=middle;resizable=0;points=[];autosize=1;strokeColor=none;fillColor=none;" vertex="1" parent="1">
          <mxGeometry x="140" y="315" width="100" height="40" as="geometry" />
        </mxCell>
        <mxCell id="xxeOwCgViu-PLUD5N7O--10" value="Organised music,&amp;nbsp;&lt;div&gt;stats, output log&lt;/div&gt;" style="text;html=1;align=center;verticalAlign=middle;resizable=0;points=[];autosize=1;strokeColor=none;fillColor=none;" vertex="1" parent="1">
          <mxGeometry x="320" y="230" width="120" height="40" as="geometry" />
        </mxCell>
        <mxCell id="xxeOwCgViu-PLUD5N7O--11" value="Music Folder&lt;div&gt;(Local Files)&lt;/div&gt;" style="rounded=0;whiteSpace=wrap;html=1;" vertex="1" parent="1">
          <mxGeometry x="160" y="585" width="120" height="60" as="geometry" />
        </mxCell>
        <mxCell id="xxeOwCgViu-PLUD5N7O--12" value="" style="endArrow=classic;html=1;rounded=0;curved=1;entryX=0;entryY=0.5;entryDx=0;entryDy=0;exitX=0.5;exitY=1;exitDx=0;exitDy=0;" edge="1" parent="1">
          <mxGeometry width="50" height="50" relative="1" as="geometry">
            <mxPoint x="330" y="440" as="sourcePoint" />
            <mxPoint x="230" y="580" as="targetPoint" />
            <Array as="points">
              <mxPoint x="220" y="460" />
            </Array>
          </mxGeometry>
        </mxCell>
        <mxCell id="xxeOwCgViu-PLUD5N7O--13" value="" style="endArrow=classic;html=1;rounded=0;curved=1;entryX=0.363;entryY=0.988;entryDx=0;entryDy=0;exitX=0.363;exitY=0.988;exitDx=0;exitDy=0;entryPerimeter=0;exitPerimeter=0;" edge="1" parent="1" target="xxeOwCgViu-PLUD5N7O--2">
          <mxGeometry width="50" height="50" relative="1" as="geometry">
            <mxPoint x="280" y="603" as="sourcePoint" />
            <mxPoint x="343" y="490" as="targetPoint" />
            <Array as="points">
              <mxPoint x="370" y="563" />
            </Array>
          </mxGeometry>
        </mxCell>
        <mxCell id="xxeOwCgViu-PLUD5N7O--14" value="Music Files" style="text;html=1;align=center;verticalAlign=middle;resizable=0;points=[];autosize=1;strokeColor=none;fillColor=none;" vertex="1" parent="1">
          <mxGeometry x="330" y="555" width="80" height="30" as="geometry" />
        </mxCell>
        <mxCell id="xxeOwCgViu-PLUD5N7O--15" value="Updated Metadata,&lt;div&gt;sorted folder,&lt;/div&gt;&lt;div&gt;delete empty folders&lt;/div&gt;" style="text;html=1;align=center;verticalAlign=middle;resizable=0;points=[];autosize=1;strokeColor=none;fillColor=none;" vertex="1" parent="1">
          <mxGeometry x="130" y="440" width="130" height="60" as="geometry" />
        </mxCell>
        <mxCell id="xxeOwCgViu-PLUD5N7O--16" value="Genre Alias List" style="rounded=0;whiteSpace=wrap;html=1;" vertex="1" parent="1">
          <mxGeometry x="600" y="370" width="120" height="60" as="geometry" />
        </mxCell>
        <mxCell id="xxeOwCgViu-PLUD5N7O--17" value="" style="endArrow=classic;html=1;rounded=0;curved=1;exitX=0.25;exitY=0;exitDx=0;exitDy=0;" edge="1" parent="1" source="xxeOwCgViu-PLUD5N7O--16" target="xxeOwCgViu-PLUD5N7O--2">
          <mxGeometry width="50" height="50" relative="1" as="geometry">
            <mxPoint x="640" y="280" as="sourcePoint" />
            <mxPoint x="540" y="420" as="targetPoint" />
            <Array as="points">
              <mxPoint x="530" y="300" />
            </Array>
          </mxGeometry>
        </mxCell>
        <mxCell id="xxeOwCgViu-PLUD5N7O--18" value="" style="endArrow=classic;html=1;rounded=0;curved=1;exitX=0.25;exitY=0;exitDx=0;exitDy=0;" edge="1" parent="1">
          <mxGeometry width="50" height="50" relative="1" as="geometry">
            <mxPoint x="470" y="449" as="sourcePoint" />
            <mxPoint x="637" y="430" as="targetPoint" />
            <Array as="points">
              <mxPoint x="537" y="500" />
            </Array>
          </mxGeometry>
        </mxCell>
        <mxCell id="xxeOwCgViu-PLUD5N7O--19" value="Genre Alias&#39;s" style="text;html=1;align=center;verticalAlign=middle;resizable=0;points=[];autosize=1;strokeColor=none;fillColor=none;" vertex="1" parent="1">
          <mxGeometry x="560" y="315" width="90" height="30" as="geometry" />
        </mxCell>
      </root>
    </mxGraphModel>
  </diagram>
</mxfile>
